<?xml version="1.0" standalone="no"?>
<!DOCTYPE svg PUBLIC "-//W3C//DTD SVG 20010904//EN"
 "http://www.w3.org/TR/2001/REC-SVG-20010904/DTD/svg10.dtd">
<svg version="1.0" xmlns="http://www.w3.org/2000/svg"
 width="893.000000pt" height="1157.000000pt" viewBox="0 0 893.000000 1157.000000"
 preserveAspectRatio="xMidYMid meet">

<g transform="translate(0.000000,1157.000000) scale(0.100000,-0.100000)"
fill="#000000" stroke="none">
<path d="M8182 11213 c-13 -3 -19 -9 -16 -15 4 -6 2 -8 -4 -4 -6 3 -30 2 -53
-3 -27 -6 -49 -6 -61 0 -12 6 -47 5 -105 -6 -49 -8 -144 -17 -212 -19 -121 -4
-124 -5 -155 -35 -52 -50 -97 -63 -231 -65 -106 -2 -127 -6 -163 -26 -23 -13
-42 -27 -42 -32 0 -17 -49 -28 -75 -16 -19 8 -28 8 -40 -2 -10 -8 -15 -9 -15
-1 0 31 -97 -9 -102 -43 -2 -10 -13 -23 -26 -27 -15 -6 -21 -5 -17 1 13 21
-16 9 -50 -21 -32 -28 -40 -30 -36 -5 1 5 -8 6 -21 2 -13 -3 -29 -6 -36 -6 -7
0 -22 -15 -33 -34 -17 -30 -73 -65 -114 -72 -5 -1 -12 -3 -15 -4 -3 -1 -14 -3
-25 -5 -11 -2 -47 -14 -80 -25 -33 -11 -67 -23 -75 -25 -8 -2 -15 -4 -15 -5 0
-1 -10 -3 -23 -6 -12 -2 -39 -11 -60 -21 -20 -9 -39 -17 -42 -18 -3 -1 -12 -5
-20 -8 -8 -3 -42 -14 -75 -23 -33 -9 -66 -21 -72 -26 -7 -6 -13 -8 -13 -5 0 8
-231 -56 -255 -71 -5 -4 -19 -8 -29 -9 -11 -2 -33 -10 -49 -18 -17 -8 -35 -15
-40 -15 -15 0 -121 -53 -129 -65 -4 -5 -8 -7 -8 -2 0 4 -10 1 -23 -8 -13 -8
-27 -12 -30 -8 -4 3 -7 1 -7 -5 0 -6 -16 -16 -36 -22 -38 -13 -193 -113 -206
-134 -5 -6 -8 -7 -8 -1 0 6 -7 2 -14 -8 -8 -10 -18 -19 -23 -19 -10 0 -42 -14
-63 -27 -52 -31 -140 -56 -140 -40 0 9 -71 -9 -88 -23 -7 -6 -15 -8 -19 -5 -3
3 -18 0 -33 -8 -15 -8 -39 -16 -54 -19 -14 -3 -50 -16 -79 -29 -28 -13 -75
-27 -104 -31 -28 -4 -69 -14 -90 -23 -21 -9 -42 -18 -48 -19 -31 -8 -131 -48
-135 -54 -3 -4 -12 -7 -20 -7 -25 0 -132 -24 -199 -44 -35 -11 -72 -17 -82
-14 -9 3 -20 1 -24 -5 -3 -6 -10 -8 -15 -5 -5 3 -12 -4 -15 -15 -4 -12 -12
-19 -18 -17 -7 2 -25 -9 -42 -25 -16 -15 -35 -28 -42 -28 -6 0 -19 -10 -28
-22 -8 -13 -18 -22 -21 -20 -3 2 -14 -8 -25 -23 -12 -14 -24 -23 -29 -20 -4 3
-19 -7 -32 -22 -35 -42 -70 -61 -106 -58 -21 2 -39 -4 -50 -15 -9 -9 -34 -20
-54 -23 -20 -3 -52 -12 -70 -20 -18 -9 -49 -20 -69 -27 -20 -6 -45 -20 -55
-32 -17 -18 -62 -42 -73 -38 -2 1 -8 -5 -13 -14 -5 -9 -13 -14 -19 -11 -5 4
-9 -1 -9 -10 0 -9 -12 -18 -30 -21 -16 -4 -30 -10 -30 -15 0 -18 -26 -8 -56
21 -18 16 -34 27 -37 24 -3 -3 -8 5 -12 18 -4 13 -20 41 -35 63 -28 42 -28 36
-19 215 3 50 -3 71 -33 110 -14 19 -29 45 -32 56 -4 12 -18 34 -33 50 -14 15
-32 43 -40 62 -19 46 -46 73 -74 75 -24 2 -127 62 -140 81 -4 5 -14 6 -24 3
-9 -4 -13 -3 -10 2 8 14 -94 26 -215 26 -87 0 -112 -4 -147 -21 -23 -12 -40
-17 -37 -12 3 5 -27 -8 -68 -29 -40 -21 -79 -37 -85 -37 -7 1 -10 -2 -7 -7 3
-5 -1 -9 -8 -9 -7 0 -33 -18 -58 -40 -24 -22 -48 -40 -53 -40 -4 0 -6 -4 -3
-8 2 -4 -7 -13 -22 -20 -37 -17 -133 -98 -125 -106 4 -3 1 -6 -5 -6 -12 0 -25
-33 -27 -65 -1 -11 -11 -40 -23 -65 -41 -88 -47 -150 -26 -295 3 -22 5 -49 5
-59 0 -11 9 -54 21 -95 11 -42 23 -87 26 -101 2 -14 9 -30 14 -37 5 -6 8 -20
6 -30 -4 -22 -46 -83 -69 -100 -9 -7 -31 -35 -49 -63 -20 -31 -39 -50 -51 -50
-10 0 -19 -5 -19 -10 0 -6 -10 -2 -22 10 -12 11 -35 20 -53 20 -67 0 -70 31
-14 142 69 138 79 187 36 194 -14 2 -87 -83 -87 -102 0 -3 -21 -30 -47 -60
-35 -40 -54 -54 -73 -54 -27 0 -27 0 -19 57 4 31 6 60 3 65 -3 4 0 8 6 8 6 0
8 5 5 10 -4 6 -2 16 3 23 20 26 20 69 0 89 -19 19 -20 19 -42 -4 -12 -13 -21
-26 -19 -30 2 -4 -1 -9 -7 -13 -6 -4 -8 -11 -4 -16 3 -5 0 -16 -6 -24 -7 -8
-9 -15 -5 -15 4 0 2 -6 -4 -13 -6 -8 -12 -22 -14 -33 -2 -10 -11 -36 -20 -58
-9 -21 -17 -42 -17 -47 0 -5 -11 -16 -24 -24 -21 -14 -48 -79 -58 -139 -3 -22
-28 -35 -28 -15 0 7 -9 31 -19 53 -11 23 -23 59 -26 81 -7 40 -12 66 -15 75
-1 3 -2 8 -1 12 0 4 -8 12 -18 18 -30 15 -36 -4 -34 -99 1 -46 -2 -91 -7 -101
-14 -26 -11 -128 11 -358 11 -114 11 -124 -7 -143 -21 -23 -20 -18 -28 -137
l-6 -92 28 -14 c15 -8 36 -28 47 -45 11 -17 28 -31 37 -31 18 0 31 -15 34 -40
3 -40 26 -177 32 -190 3 -8 6 -33 8 -55 1 -22 5 -74 9 -115 3 -41 7 -93 9
-115 2 -22 4 -42 5 -45 3 -7 11 -101 12 -130 0 -14 3 -32 6 -40 4 -8 8 -24 9
-35 8 -51 10 -61 18 -73 4 -6 5 -16 2 -20 -3 -5 2 -21 10 -36 7 -16 14 -39 14
-52 0 -12 5 -26 10 -29 6 -4 8 -10 5 -15 -3 -5 -1 -11 4 -15 6 -3 8 -12 5 -19
-3 -8 0 -17 5 -21 6 -3 9 -11 6 -16 -4 -5 -3 -15 2 -21 4 -7 9 -31 10 -52 2
-21 7 -44 13 -51 6 -7 8 -20 4 -29 -3 -9 -1 -16 5 -16 6 0 8 -6 5 -14 -3 -8 0
-17 5 -21 6 -3 9 -11 5 -16 -3 -5 -1 -15 4 -22 6 -7 12 -24 14 -37 8 -60 101
-215 163 -272 29 -27 91 -39 109 -21 3 4 17 8 29 10 36 5 118 43 174 80 31 20
86 75 130 130 43 52 93 111 110 131 18 20 33 42 33 48 0 5 15 24 32 41 56 53
146 94 110 50 -7 -8 -9 -17 -5 -20 11 -12 50 -7 51 6 7 83 14 103 49 139 20
21 45 40 54 43 12 4 16 13 14 27 -3 11 -2 18 2 15 3 -3 20 4 37 16 37 27 54
27 89 4 15 -10 38 -22 52 -27 14 -5 25 -14 25 -19 0 -5 11 -12 25 -15 14 -4
25 -11 25 -16 0 -6 5 -10 11 -10 6 0 25 -10 42 -22 17 -12 27 -16 23 -9 -4 6
23 -8 61 -32 38 -24 85 -50 106 -56 20 -7 54 -28 74 -47 19 -19 39 -34 44 -34
4 0 17 -14 29 -31 15 -20 28 -28 38 -24 9 3 13 3 9 -1 -7 -8 18 -28 68 -55 17
-9 45 -39 64 -66 19 -28 49 -60 66 -72 22 -15 32 -29 30 -44 -1 -12 -4 -22 -5
-22 -1 0 -4 -13 -6 -29 -2 -17 -13 -43 -24 -58 -12 -16 -18 -34 -14 -40 4 -7
3 -8 -4 -4 -7 4 -12 3 -12 -3 0 -5 8 -14 18 -20 15 -9 14 -12 -12 -40 l-30
-31 29 0 29 0 -32 -24 c-79 -58 -117 -113 -107 -156 5 -23 0 -34 -24 -59 -17
-18 -31 -38 -31 -46 0 -8 -3 -14 -8 -14 -21 4 -30 -3 -36 -27 -4 -15 -16 -34
-28 -43 -11 -9 -22 -32 -24 -51 -5 -48 -12 -62 -26 -58 -10 4 -62 -46 -57 -54
1 -2 -12 -28 -29 -59 -17 -32 -28 -60 -25 -63 4 -3 1 -6 -5 -6 -5 0 -21 -17
-33 -37 -13 -21 -28 -41 -33 -45 -6 -4 -7 -8 -2 -8 5 0 2 -7 -5 -17 -8 -9 -13
-18 -11 -20 1 -1 -6 -22 -17 -46 -10 -23 -24 -58 -31 -77 -8 -19 -19 -42 -27
-51 -7 -9 -10 -19 -6 -22 3 -4 1 -7 -5 -7 -7 0 -12 -7 -12 -15 0 -8 -4 -15
-10 -15 -5 0 -10 -5 -10 -11 0 -6 -10 -25 -22 -42 -13 -18 -24 -35 -24 -39 -1
-5 -3 -10 -4 -13 -1 -3 -3 -8 -4 -12 -1 -5 -10 -24 -21 -43 -11 -19 -19 -37
-20 -40 0 -3 -16 -25 -35 -49 -19 -23 -35 -46 -35 -50 0 -3 -4 -12 -8 -19 -5
-6 -5 -12 -2 -12 3 0 -4 -11 -17 -25 -41 -43 -45 -50 -78 -134 -18 -46 -38
-88 -45 -94 -13 -14 -8 -86 7 -104 6 -8 6 -19 -1 -32 -6 -11 -11 -29 -11 -40
0 -12 -4 -21 -10 -21 -5 0 -19 -22 -31 -50 -12 -27 -25 -50 -29 -50 -6 0 -22
-75 -24 -117 -1 -7 -7 -18 -14 -25 -6 -6 -12 -16 -12 -21 0 -5 -18 -45 -40
-89 -22 -44 -40 -84 -40 -89 0 -5 -15 -42 -33 -82 -71 -154 -97 -231 -96 -282
1 -27 -6 -91 -16 -140 -27 -151 -16 -430 31 -755 23 -156 82 -477 100 -539 18
-62 98 -175 117 -165 7 4 9 4 5 0 -5 -7 50 -90 71 -106 3 -3 19 -25 36 -50 51
-78 96 -130 126 -145 22 -12 29 -23 30 -48 1 -27 2 -29 7 -9 4 13 11 22 17 20
13 -4 7 -27 -16 -59 -10 -15 -19 -38 -19 -51 -1 -23 -29 -82 -30 -63 -1 6 -9
-6 -18 -25 -9 -19 -19 -33 -22 -31 -12 10 -51 -21 -46 -36 4 -8 -7 -35 -24
-59 -16 -25 -30 -54 -30 -65 0 -11 -5 -17 -10 -14 -6 3 -23 -3 -39 -14 -16
-12 -36 -21 -44 -21 -8 0 -20 -6 -26 -14 -15 -18 -22 -56 -10 -56 5 0 9 -9 9
-20 0 -11 -5 -20 -11 -20 -5 0 -8 -4 -4 -9 7 -12 -24 -43 -35 -36 -5 3 -11 1
-15 -5 -4 -6 -11 -8 -16 -5 -5 3 -6 -1 -3 -9 5 -14 -28 -41 -39 -30 -7 7 4 45
12 40 3 -2 6 7 6 20 0 22 -1 23 -12 7 -7 -10 -17 -24 -23 -31 -6 -7 -8 -17 -4
-24 4 -7 3 -8 -4 -4 -7 4 -16 -2 -22 -16 -6 -13 -22 -43 -36 -68 -16 -27 -28
-68 -31 -102 -5 -52 -3 -62 27 -108 18 -27 37 -50 43 -50 6 0 8 -3 4 -6 -10
-10 20 -60 50 -84 54 -42 91 -51 183 -44 47 4 97 13 112 20 15 8 35 14 44 14
31 0 154 70 221 125 37 30 82 60 102 66 20 7 49 22 64 35 16 13 33 24 38 24 5
0 28 17 52 38 42 39 135 92 160 92 7 0 61 42 119 93 58 52 119 99 135 106 25
10 32 21 42 65 6 29 9 59 6 67 -15 42 -31 459 -17 459 6 0 14 -5 17 -10 11
-18 24 -11 72 38 27 26 63 58 81 71 32 22 32 23 27 88 -7 80 -16 99 -53 106
-23 5 -33 16 -51 56 -11 27 -21 64 -21 81 0 18 -7 47 -16 66 -13 26 -25 36
-58 44 -22 6 -59 18 -80 26 -30 11 -58 14 -111 9 l-70 -7 -18 39 c-14 33 -16
57 -11 144 l7 104 -40 65 c-40 65 -60 152 -43 181 5 6 2 27 -6 45 -23 54 -18
142 11 189 34 54 34 113 0 145 -39 37 -33 48 23 39 51 -8 71 2 95 47 7 13 37
65 68 116 31 51 71 120 89 153 68 124 75 125 67 13 -18 -232 -37 -419 -47
-470 -11 -59 -11 -59 54 -234 6 -17 24 -47 39 -67 15 -20 27 -40 27 -44 0 -18
279 -292 380 -373 30 -24 60 -48 65 -54 12 -13 83 -70 146 -118 63 -48 264
-178 275 -178 14 0 150 -105 224 -174 29 -27 151 -106 164 -106 6 0 29 -9 50
-19 21 -11 51 -23 68 -26 80 -18 176 -112 236 -231 54 -107 115 -162 206 -185
40 -10 50 -9 89 10 41 20 46 20 87 6 23 -8 71 -15 106 -15 72 0 99 -8 134 -41
14 -13 34 -23 44 -21 11 2 19 -4 23 -17 3 -11 9 -19 13 -16 16 10 87 -88 82
-113 -2 -7 4 -15 12 -18 8 -3 18 -18 21 -34 3 -16 16 -39 28 -52 13 -13 28
-35 34 -50 7 -15 26 -34 42 -43 17 -8 40 -33 51 -54 21 -42 54 -158 65 -227
13 -83 107 -174 182 -174 37 0 151 57 158 79 3 11 20 30 38 44 85 64 120 372
88 767 -6 74 -11 197 -11 273 0 186 -22 383 -50 452 -4 11 -19 52 -34 90 -14
39 -40 87 -56 105 -16 19 -27 28 -24 19 7 -22 -35 -48 -69 -42 -18 4 -27 1
-27 -7 0 -9 -7 -8 -25 4 -30 20 -41 21 -25 1 10 -12 9 -16 -4 -21 -12 -5 -28
5 -50 30 -26 28 -41 36 -68 36 -19 0 -61 9 -94 19 -90 30 -195 37 -235 17 -17
-9 -36 -16 -40 -16 -5 0 -8 23 -7 51 0 44 -3 55 -23 70 -13 10 -32 19 -42 19
-38 0 -125 -31 -178 -65 l-54 -34 -37 36 c-23 23 -41 33 -50 28 -7 -5 -10 -5
-6 0 4 4 -16 23 -45 43 -29 19 -56 41 -60 49 -7 11 -12 11 -23 2 -11 -9 -14
-8 -14 2 0 8 -20 32 -45 54 -25 22 -45 47 -45 57 0 9 -6 30 -12 45 -15 35 -88
113 -108 117 -8 1 -30 10 -47 19 -18 10 -33 15 -33 11 0 -4 -7 -1 -15 6 -8 7
-15 26 -15 42 0 39 -31 82 -80 109 -35 20 -41 28 -51 78 -16 78 -85 171 -122
162 -5 -1 -6 3 -3 8 3 5 -14 19 -39 31 -34 16 -55 20 -83 16 -79 -13 -152 -18
-151 -10 0 5 6 36 13 69 l13 60 37 0 c29 0 43 7 70 36 36 38 146 226 194 330
59 130 92 207 95 225 1 11 6 24 10 30 4 7 12 47 17 90 7 51 19 89 32 109 13
17 22 45 23 70 0 22 4 46 8 52 5 7 6 13 3 13 -3 0 6 25 20 55 13 31 24 64 24
75 0 10 4 21 9 24 5 3 12 38 16 78 4 39 16 86 25 104 10 18 16 35 13 38 -4 3
-1 6 6 6 6 0 11 6 10 12 -1 7 6 31 15 53 10 21 19 53 21 70 1 16 5 41 8 55 4
14 9 66 13 115 9 133 11 163 20 240 4 39 8 94 8 123 1 28 4 52 9 52 4 0 7 5 7
11 0 5 -5 7 -10 4 -11 -7 -2 76 9 85 9 7 7 43 -4 60 -5 8 -8 22 -7 31 2 12 -5
14 -34 11 -27 -3 -35 -1 -29 7 4 7 10 10 13 7 3 -3 14 1 24 11 10 9 18 12 18
7 0 -5 7 1 15 13 18 26 10 54 -13 46 -12 -5 -11 -2 4 14 10 11 23 20 28 19 5
-1 11 5 14 13 2 8 1 11 -4 8 -5 -3 -17 1 -27 8 -18 13 -18 14 1 24 17 9 19 16
12 45 -6 26 -3 42 11 65 11 18 14 30 7 28 -7 -1 -14 6 -16 17 -2 11 0 16 7 12
17 -11 68 46 66 74 -2 22 45 102 59 100 4 0 19 6 35 14 16 9 44 18 62 21 18 3
39 11 46 17 8 6 16 8 20 5 3 -4 12 -2 20 4 7 6 13 8 13 5 0 -4 8 0 17 10 20
20 22 84 2 129 -7 17 -13 32 -13 35 -1 3 -4 10 -8 16 -4 6 -9 23 -12 38 -3 16
-12 39 -21 52 -8 13 -15 31 -15 41 0 10 -9 35 -20 56 -11 20 -20 39 -20 42 0
3 0 6 -1 8 0 1 -2 13 -5 26 -2 14 -9 30 -15 38 -6 7 -8 13 -4 13 4 0 2 6 -4
13 -6 8 -8 16 -5 19 3 3 -4 22 -16 42 -11 20 -20 45 -20 55 0 10 -3 21 -7 25
-4 3 -8 17 -10 29 -2 12 -8 24 -13 25 -6 2 -8 8 -5 13 3 5 0 19 -7 31 -6 13
-13 28 -14 33 0 6 -2 12 -3 15 -2 3 -4 12 -6 20 -9 41 -45 141 -67 183 -5 10
-6 22 -3 27 4 6 1 10 -4 10 -6 0 -10 3 -10 8 1 4 1 9 -1 12 -1 3 -3 14 -5 25
-2 12 -11 37 -20 58 -8 20 -15 38 -15 39 1 5 -51 142 -58 153 -3 5 -8 19 -9
29 -2 11 -7 24 -12 30 -4 6 -14 34 -21 61 -7 28 -20 58 -28 68 -8 9 -12 17 -7
17 4 0 2 7 -5 15 -7 9 -10 18 -7 21 3 4 -5 28 -18 54 -13 26 -21 51 -17 55 4
4 -4 5 -17 3 -22 -3 -25 2 -38 57 -7 33 -15 75 -18 94 -3 19 -8 38 -11 43 -3
5 -8 23 -11 40 -3 17 -10 43 -15 57 -6 14 -10 30 -9 35 3 16 -10 46 -21 43 -5
-1 -12 12 -14 28 -8 66 -16 131 -16 140 -1 19 11 113 18 141 6 25 105 170 125
184 4 3 9 14 11 25 5 28 30 51 72 65 20 6 38 16 42 21 3 5 24 19 47 30 22 12
47 28 55 35 7 8 17 14 20 14 4 0 29 21 56 47 31 30 49 56 51 73 1 15 5 32 9
38 4 7 4 17 0 23 -3 6 -7 34 -9 62 -2 50 -4 73 -19 202 -16 146 -20 132 40
160 46 22 98 45 114 50 3 1 16 6 30 12 14 6 29 11 33 11 4 0 19 8 33 17 22 14
41 19 104 29 9 1 21 5 28 10 6 4 16 5 21 1 5 -3 12 -1 16 5 4 6 10 8 15 5 5
-3 11 -1 15 5 3 5 14 10 23 10 9 0 37 11 62 24 25 13 65 34 90 47 25 12 57 31
73 41 15 11 27 16 27 11 0 -4 5 0 11 10 5 9 16 17 24 17 19 0 138 60 147 74 4
6 8 7 8 3 0 -4 11 2 25 15 14 13 55 39 92 58 38 18 71 39 75 45 4 5 8 7 8 3 0
-5 39 13 88 38 131 69 132 70 124 79 -4 5 -1 5 6 1 8 -5 21 -2 30 7 9 8 22 16
27 18 6 2 37 20 70 39 33 19 68 36 79 37 11 2 25 8 32 14 18 15 94 15 121 1
31 -17 51 -15 63 7 13 25 13 34 0 26 -5 -3 -10 -2 -10 4 0 5 19 9 43 8 38 -2
42 0 40 21 -2 13 4 25 12 28 8 4 12 10 9 16 -3 5 10 2 30 -6 33 -14 38 -13 82
10 26 14 53 23 60 20 7 -3 25 7 41 20 24 22 34 24 73 18 81 -12 104 -15 195
-20 50 -3 113 -10 140 -15 48 -10 51 -9 72 18 15 18 19 30 11 34 -6 4 2 14 21
23 17 9 31 21 31 27 0 8 4 8 13 0 11 -8 17 -5 27 14 18 34 -3 85 -36 85 -44 0
-75 21 -72 49 2 20 14 31 53 49 28 13 59 32 70 43 12 10 36 21 55 25 37 6 62
15 120 44 19 10 66 25 103 35 37 10 70 22 72 26 3 4 13 5 23 2 10 -2 45 4 78
15 32 11 84 25 114 31 30 7 65 20 78 31 29 24 29 50 -1 50 -13 0 -27 4 -32 9
-6 6 -42 6 -94 0 -57 -6 -88 -6 -95 1 -10 10 -14 10 -54 3z m-1052 -618 c-7
-8 -17 -12 -22 -9 -6 4 -5 10 3 15 22 14 33 10 19 -6z m-5022 -1884 c1 -1 2
-11 2 -23 0 -13 10 -38 23 -57 41 -64 57 -91 51 -91 -2 0 11 -13 29 -30 19
-16 42 -30 51 -30 26 0 18 -34 -14 -65 -17 -16 -40 -49 -52 -72 -27 -55 -77
-115 -89 -108 -5 4 -9 -1 -9 -9 0 -9 -4 -16 -10 -16 -5 0 -10 -7 -10 -14 0 -8
-24 -43 -52 -77 -85 -100 -117 -142 -134 -176 -9 -18 -20 -31 -24 -28 -5 3 -7
-8 -5 -25 2 -17 0 -28 -5 -25 -4 3 -6 -4 -3 -15 3 -11 9 -23 14 -26 19 -12 7
-44 -31 -83 -23 -23 -38 -47 -34 -53 4 -6 3 -8 -4 -4 -11 6 -79 -82 -74 -96 1
-5 -2 -8 -6 -8 -5 0 -21 -22 -36 -50 -40 -73 -56 -69 -106 28 -19 37 -59 179
-86 307 -3 17 -11 36 -16 43 -6 6 -8 12 -4 12 4 0 -1 15 -11 33 -9 17 -19 45
-21 62 -2 16 -7 32 -10 35 -11 8 -13 63 -2 90 5 14 11 43 14 65 2 23 12 45 23
53 10 7 34 23 53 36 19 13 34 28 33 33 -1 6 3 10 10 9 7 0 14 4 17 9 2 6 17
20 31 33 47 39 100 128 104 174 6 80 9 83 88 95 40 6 83 16 97 21 14 5 28 10
33 11 4 0 24 10 45 21 32 18 84 22 130 11z"/>
<path d="M2114 6888 l-29 -33 33 29 c30 28 37 36 29 36 -2 0 -16 -15 -33 -32z"/>
</g>
</svg>
