<?xml version="1.0" standalone="no"?>
<!DOCTYPE svg PUBLIC "-//W3C//DTD SVG 20010904//EN"
 "http://www.w3.org/TR/2001/REC-SVG-20010904/DTD/svg10.dtd">
<svg version="1.0" xmlns="http://www.w3.org/2000/svg"
 width="7484.000000pt" height="8000.000000pt" viewBox="0 0 7484.000000 8000.000000"
 preserveAspectRatio="xMidYMid meet">

<g transform="translate(0.000000,8000.000000) scale(0.100000,-0.100000)"
fill="#000000" stroke="none">
<path d="M26989 79176 c-2 -2 -65 -9 -139 -15 -685 -58 -1360 -249 -1920 -543
-74 -39 -211 -110 -305 -158 -93 -48 -192 -100 -220 -117 -349 -209 -631 -455
-891 -779 -96 -120 -270 -398 -351 -559 -219 -437 -362 -893 -462 -1470 -87
-499 -111 -663 -141 -958 -35 -343 -32 -865 6 -1087 2 -14 9 -56 15 -95 6 -38
20 -95 30 -127 10 -32 25 -107 33 -167 38 -272 92 -472 291 -1071 195 -591
239 -750 271 -990 22 -168 15 -534 -15 -732 -90 -606 -267 -994 -606 -1333
-434 -434 -1146 -778 -2027 -981 -309 -71 -373 -78 -688 -79 -315 0 -385 7
-645 70 -392 94 -668 215 -1435 627 -348 188 -600 313 -800 399 -281 120 -650
228 -882 259 -43 5 -196 17 -340 25 -750 44 -1062 95 -1296 214 -213 108 -260
293 -130 514 76 130 167 249 287 377 27 28 147 194 181 250 88 144 165 311
196 421 14 53 17 110 18 324 1 258 1 261 29 340 48 135 207 447 377 735 238
402 306 542 341 700 23 104 23 142 3 231 -20 87 -77 175 -153 236 -82 65 -270
153 -491 228 -107 37 -226 83 -265 102 -80 40 -183 114 -237 170 -55 57 -142
183 -204 297 -160 288 -252 406 -382 493 -152 101 -359 93 -485 -18 -92 -80
-129 -209 -126 -434 2 -179 14 -285 45 -410 13 -55 24 -113 24 -130 0 -41 -31
-88 -82 -126 -68 -49 -294 -155 -393 -184 -165 -47 -240 -56 -398 -45 -236 16
-331 39 -767 179 -438 142 -583 173 -800 173 -273 0 -452 -65 -737 -268 -220
-157 -284 -181 -453 -171 -192 12 -467 115 -760 284 -47 27 -186 112 -310 189
-293 183 -379 233 -513 301 -297 148 -513 206 -1069 283 -389 53 -558 64
-1033 64 -375 1 -475 -2 -600 -17 -489 -59 -811 -148 -1129 -310 -247 -126
-465 -294 -741 -571 -195 -195 -326 -345 -650 -741 -453 -554 -586 -697 -1020
-1093 -473 -433 -671 -644 -827 -882 -123 -188 -208 -388 -243 -572 -9 -45
-20 -101 -26 -123 -15 -60 -6 -335 15 -440 87 -447 262 -816 597 -1255 318
-418 698 -792 1804 -1775 1308 -1162 2328 -1984 3505 -2823 190 -136 545 -397
790 -581 245 -184 598 -450 785 -591 734 -552 1167 -843 1754 -1183 540 -311
924 -605 1306 -999 737 -760 1267 -1685 1860 -3243 706 -1858 1065 -3209 1475
-5555 39 -223 136 -729 215 -1125 197 -983 246 -1260 299 -1705 44 -366 51
-486 51 -915 0 -431 -6 -524 -51 -821 -74 -489 -249 -906 -566 -1346 -213
-297 -400 -502 -1026 -1123 -644 -639 -799 -808 -1014 -1103 -265 -362 -456
-769 -532 -1137 -51 -244 -61 -377 -60 -800 0 -417 4 -490 69 -1170 98 -1027
106 -1385 40 -1827 -48 -324 -117 -604 -290 -1174 -189 -622 -253 -878 -324
-1294 -85 -495 -134 -911 -206 -1755 -90 -1054 -159 -1771 -285 -2940 -27
-253 -61 -568 -75 -700 -14 -132 -32 -298 -40 -370 -160 -1488 -252 -2473
-319 -3400 -24 -329 -33 -484 -76 -1365 -44 -885 -106 -1398 -230 -1890 -148
-590 -355 -1035 -700 -1505 -310 -423 -427 -601 -525 -800 -210 -427 -244
-805 -115 -1276 74 -269 200 -553 466 -1046 302 -559 420 -842 539 -1283 162
-603 227 -1158 280 -2395 55 -1285 114 -1813 270 -2420 120 -466 213 -695 645
-1590 322 -667 466 -1102 510 -1544 33 -337 -28 -646 -186 -938 -55 -101 -163
-266 -318 -483 -258 -360 -367 -541 -414 -683 -49 -146 -65 -267 -59 -437 9
-227 40 -380 181 -890 130 -472 175 -726 183 -1040 11 -470 -68 -752 -330
-1162 -301 -472 -526 -961 -621 -1353 -62 -255 -77 -499 -42 -680 54 -279 227
-496 489 -615 291 -131 1061 -292 1682 -351 428 -40 1114 -42 1333 -4 450 78
776 373 1062 960 81 167 144 315 295 695 269 677 397 924 609 1177 94 113 105
122 391 355 560 456 798 720 960 1060 66 141 101 250 127 403 24 144 22 324
-11 805 -92 1367 -70 3066 64 5000 27 385 55 772 65 895 6 66 26 320 45 565
55 698 82 979 135 1445 174 1524 203 1900 181 2346 -13 274 -29 449 -66 719
-49 358 -83 537 -313 1665 -114 557 -171 899 -211 1265 -129 1183 54 2293 672
4075 43 124 146 412 415 1165 489 1367 896 2331 1448 3430 276 550 402 781
836 1540 74 129 210 370 303 535 384 687 626 1051 919 1383 304 345 851 770
1244 969 333 168 498 117 785 -246 202 -257 358 -449 412 -511 256 -288 509
-515 718 -644 l96 -59 -58 -43 c-226 -170 -1039 -1153 -2373 -2869 -200 -258
-522 -664 -714 -900 -372 -459 -515 -642 -664 -850 -687 -955 -958 -1789 -869
-2670 56 -554 270 -1168 651 -1865 177 -325 340 -590 867 -1414 1966 -3071
3685 -5506 5396 -7641 375 -469 569 -695 1230 -1440 986 -1110 1384 -1604
1803 -2240 499 -758 798 -1481 977 -2370 101 -500 142 -922 151 -1575 11 -701
-25 -1218 -115 -1655 -122 -593 -337 -964 -676 -1164 -232 -138 -458 -222
-960 -356 -378 -102 -533 -149 -686 -211 -430 -172 -716 -429 -912 -819 -168
-336 -196 -607 -85 -830 159 -322 600 -523 1353 -619 307 -40 503 -48 1255
-56 410 -4 909 -15 1110 -24 201 -9 466 -21 590 -26 524 -25 622 -23 877 16
274 42 479 158 620 354 218 302 395 759 554 1430 209 887 290 1150 455 1485
133 271 268 455 529 723 410 422 700 608 940 605 283 -3 490 -254 791 -958
324 -761 554 -1409 558 -1578 1 -38 5 -56 12 -53 17 7 577 357 592 371 18 16
13 70 -122 1225 -36 305 -80 681 -98 835 -30 258 -33 303 -32 570 1 235 7 361
33 665 55 651 60 926 25 1255 -26 239 -70 424 -155 653 -193 517 -483 880
-939 1177 -210 137 -353 212 -960 505 -461 221 -612 310 -843 495 -562 451
-1029 1140 -1505 2225 -94 214 -126 289 -367 865 -200 476 -277 650 -410 920
-212 432 -256 496 -885 1325 -442 581 -626 944 -779 1540 -78 304 -131 608
-226 1285 -51 364 -97 664 -112 723 -4 17 9 9 53 -34 75 -72 334 -243 634
-420 129 -75 273 -163 320 -194 547 -364 1088 -623 1585 -759 410 -113 815
-175 1285 -196 156 -8 229 -23 314 -66 240 -122 422 -398 660 -1001 181 -458
425 -1009 594 -1343 309 -608 548 -928 1471 -1969 612 -690 753 -868 1412
-1776 561 -771 1167 -1632 1994 -2830 241 -349 565 -813 719 -1030 154 -217
377 -532 496 -700 681 -961 1073 -1547 1454 -2175 172 -283 268 -418 593 -834
363 -465 419 -544 467 -661 62 -151 129 -199 236 -171 173 46 625 253 1680
771 909 447 1228 597 1303 615 26 7 27 6 27 -35 0 -61 35 -225 71 -327 44
-127 166 -371 250 -498 97 -147 228 -278 380 -378 63 -42 250 -146 415 -231
164 -84 432 -233 594 -330 307 -185 547 -310 711 -370 302 -111 539 -136 1310
-136 827 0 957 -25 1689 -318 151 -61 329 -129 395 -152 273 -94 581 -155
1075 -215 350 -42 754 -94 915 -117 219 -31 548 -31 693 0 253 55 438 154 633
340 327 311 540 728 630 1237 31 173 38 521 14 705 -54 430 -223 810 -479
1077 -149 156 -279 250 -505 363 -363 182 -703 288 -1466 460 -563 126 -840
197 -1083 279 -457 153 -843 343 -1252 616 -464 310 -762 588 -1293 1205
l-287 335 -787 1140 c-432 627 -1038 1506 -1346 1954 -511 744 -677 980 -1109
1577 -762 1055 -1141 1702 -1390 2374 -116 314 -142 429 -143 635 0 219 36
367 141 576 104 208 222 366 539 720 232 258 433 490 770 884 503 589 630 731
1005 1125 653 685 823 892 1125 1375 76 121 166 261 202 312 283 408 525 584
830 600 276 15 531 -93 851 -360 54 -45 246 -230 427 -413 182 -182 371 -365
420 -406 343 -284 872 -699 1565 -1228 1368 -1043 1499 -1151 2401 -1979 539
-496 742 -671 1059 -917 85 -66 227 -176 315 -244 687 -532 1436 -1162 1925
-1620 295 -276 811 -798 1365 -1380 175 -184 364 -382 420 -440 56 -58 247
-258 425 -445 825 -866 1155 -1211 1167 -1218 7 -4 513 -524 1125 -1155 611
-631 1182 -1219 1267 -1307 86 -88 222 -227 302 -310 l146 -150 840 -1180
c462 -649 1057 -1486 1323 -1860 266 -374 495 -695 508 -713 21 -27 22 -31 6
-25 -14 5 -10 -5 15 -38 112 -148 274 -410 531 -859 471 -823 758 -1190 1079
-1384 100 -60 249 -112 363 -126 578 -71 1246 540 1794 1640 228 459 363 836
431 1210 28 150 25 588 -5 770 -56 343 -174 710 -362 1125 -115 257 -696 1395
-777 1523 -8 13 -13 25 -11 27 2 2 333 -183 737 -411 404 -228 738 -411 741
-407 4 5 62 159 129 343 67 184 127 339 132 345 26 26 1 43 -228 155 -407 198
-749 389 -910 508 -98 73 -133 114 -412 487 -340 453 -607 838 -670 964 -16
31 -43 105 -60 166 -192 655 -620 1104 -1321 1385 -374 150 -826 251 -1555
350 -909 123 -1162 164 -1340 215 -391 112 -755 445 -1080 990 -110 184 -250
459 -423 830 -627 1345 -841 1779 -1083 2202 -210 367 -338 553 -758 1108
-1192 1575 -2086 2648 -3075 3695 -223 236 -1243 1256 -1576 1576 -518 497
-996 894 -1410 1171 -221 148 -364 222 -840 437 -584 265 -792 388 -990 586
-226 225 -391 505 -665 1125 -347 785 -685 1369 -1198 2070 -314 429 -780 990
-1146 1380 -31 33 -119 127 -196 210 -77 82 -277 294 -445 470 -1003 1054
-1589 1722 -2141 2440 -1061 1380 -1743 2730 -2103 4161 -50 200 -113 489
-210 969 -187 924 -264 1262 -381 1669 -448 1555 -1146 2477 -2820 3726 -524
390 -579 427 -1020 678 -584 332 -817 498 -1012 720 -350 400 -566 1076 -665
2077 -17 173 -17 1489 0 1845 15 298 35 504 58 592 29 115 203 563 318 822
l26 59 193 -7 c358 -13 524 -37 719 -106 207 -73 376 -184 628 -415 336 -307
522 -405 748 -393 154 9 318 80 502 216 90 67 277 252 344 340 123 162 307
476 383 654 89 210 201 514 265 718 131 420 270 759 362 886 81 111 637 465
1211 772 739 394 982 543 1229 755 380 326 579 674 653 1142 20 131 23 442 4
550 -51 298 -84 422 -171 641 -205 518 -579 1020 -1065 1430 -360 303 -541
494 -988 1039 -407 496 -589 702 -802 906 -399 382 -646 535 -1405 869 -724
320 -930 449 -1291 810 -213 212 -292 303 -630 725 -501 626 -657 785 -1104
1123 -260 196 -367 286 -481 403 -287 297 -394 591 -394 1084 0 368 73 670
203 840 81 106 168 157 300 175 202 29 408 -45 772 -276 494 -313 653 -388
881 -414 377 -42 842 224 1425 817 421 429 687 780 845 1119 115 246 134 476
52 638 -100 199 -316 321 -693 391 -355 66 -653 192 -784 330 -83 88 -116 191
-91 285 7 25 56 133 110 240 169 338 289 634 390 965 28 94 69 224 89 290 83
261 92 309 136 715 12 114 6 544 -9 675 -40 333 -112 608 -226 870 -12 28 -46
109 -75 180 -190 470 -507 935 -950 1393 -662 684 -1540 1260 -2342 1535 -153
53 -237 75 -658 176 -94 22 -319 81 -500 130 -523 142 -707 185 -973 231
-1055 179 -1800 -111 -2412 -940 -146 -199 -279 -413 -575 -935 -222 -389
-333 -569 -471 -762 -221 -307 -299 -474 -418 -898 -138 -488 -183 -621 -271
-795 -61 -122 -118 -202 -197 -275 -125 -116 -253 -186 -573 -315 -249 -100
-367 -158 -496 -245 -211 -143 -320 -245 -373 -348 -36 -73 -42 -127 -22 -206
44 -173 141 -328 297 -473 59 -56 113 -114 120 -130 25 -61 -15 -179 -102
-299 -73 -102 -111 -180 -135 -279 -17 -69 -17 -79 -2 -151 9 -42 33 -117 53
-165 21 -49 53 -125 71 -169 19 -44 34 -93 34 -110 0 -16 -13 -58 -29 -92 -30
-63 -71 -194 -71 -227 0 -10 38 -113 85 -230 l86 -211 9 -225 c11 -264 22
-361 55 -487 50 -190 125 -323 244 -436 129 -122 244 -169 569 -236 111 -23
226 -50 257 -61 153 -53 675 -479 675 -552 0 -28 -333 -109 -580 -140 -161
-20 -484 -15 -660 10 -709 101 -1391 447 -1924 976 -233 231 -433 323 -1146
527 -601 172 -806 251 -1027 394 -424 276 -532 734 -301 1270 71 166 217 404
428 699 59 82 102 131 140 159 136 100 225 221 264 360 11 38 30 73 55 100 43
48 85 110 124 184 30 56 54 210 41 266 -8 39 14 152 42 212 13 28 43 70 68 94
52 51 85 60 231 61 142 0 275 22 328 53 62 37 189 158 227 217 75 117 96 269
80 578 -11 216 -36 550 -70 932 -52 590 -63 805 -64 1230 -1 711 25 875 261
1640 144 466 196 700 213 959 11 160 0 337 -31 477 -105 486 -522 1077 -1103
1563 -948 793 -2337 1353 -3659 1475 -149 14 -716 23 -728 12z m4238 -22257
c82 -27 174 -88 246 -162 137 -143 305 -452 364 -675 24 -86 27 -116 27 -267
1 -248 -21 -342 -207 -860 -124 -345 -177 -514 -231 -731 -103 -422 -148 -864
-127 -1242 28 -494 100 -747 371 -1307 271 -559 342 -730 400 -965 45 -181 54
-261 53 -455 -1 -323 -51 -611 -205 -1185 -199 -745 -237 -954 -259 -1433 -24
-507 17 -1086 141 -2007 38 -282 54 -446 85 -850 46 -597 85 -884 160 -1172
23 -90 85 -271 120 -353 9 -22 13 -35 7 -30 -14 15 -397 581 -494 730 -468
721 -692 1244 -802 1875 -88 507 -104 796 -117 2110 -5 553 -11 1023 -14 1045
-2 22 -9 132 -15 245 -33 611 -99 1314 -250 2663 -96 853 -155 1426 -190 1837
-17 207 -24 651 -11 805 26 326 30 420 36 804 7 507 23 688 80 912 67 265 189
462 361 585 150 107 310 135 471 83z"/>
</g>
</svg>
