<?xml version="1.0" standalone="no"?>
<!DOCTYPE svg PUBLIC "-//W3C//DTD SVG 20010904//EN"
 "http://www.w3.org/TR/2001/REC-SVG-20010904/DTD/svg10.dtd">
<svg version="1.0" xmlns="http://www.w3.org/2000/svg"
 width="942.000000pt" height="1280.000000pt" viewBox="0 0 942.000000 1280.000000"
 preserveAspectRatio="xMidYMid meet">

<g transform="translate(0.000000,1280.000000) scale(0.100000,-0.100000)"
fill="#000000" stroke="none">
<path d="M8726 12761 c-42 -43 -53 -46 -236 -57 -47 -3 -89 -9 -95 -14 -5 -4
-28 -11 -50 -15 -22 -4 -55 -13 -72 -20 -31 -13 -33 -17 -33 -67 0 -29 9 -82
21 -119 l21 -66 -22 -42 c-20 -40 -20 -44 -5 -67 12 -18 13 -29 5 -43 -17 -32
-12 -58 22 -119 42 -76 60 -95 118 -122 44 -21 50 -28 71 -84 27 -73 36 -86
60 -86 27 0 42 -45 35 -102 -4 -43 -72 -221 -114 -304 -10 -19 -152 -189 -316
-379 l-298 -344 -61 6 c-48 5 -62 3 -72 -10 -8 -11 -41 -19 -111 -26 -154 -17
-252 -40 -337 -78 -74 -33 -83 -34 -147 -28 -50 5 -75 3 -95 -7 -25 -14 -28
-12 -76 31 -28 25 -73 76 -101 113 -27 38 -54 68 -59 68 -5 0 -9 11 -9 25 0
21 5 25 30 25 37 0 50 23 50 90 0 42 3 51 15 46 12 -4 15 3 15 35 0 23 4 38
10 34 5 -3 10 23 12 65 l3 71 172 2 c118 1 176 6 184 14 9 9 7 14 -12 22 -161
66 -252 106 -265 116 -14 10 -8 35 54 227 39 119 78 251 87 293 16 72 16 79 0
121 -33 86 -154 196 -317 285 -206 114 -387 164 -712 200 l-110 12 -38 -43
c-41 -47 -178 -317 -254 -502 l-48 -118 -173 0 c-136 0 -180 -3 -203 -15 -34
-17 -40 -49 -12 -64 20 -11 134 -27 250 -37 83 -6 94 -12 67 -34 -19 -16 -19
-44 1 -75 15 -23 13 -26 -68 -127 -46 -57 -91 -114 -101 -128 -33 -48 -16 -86
48 -107 25 -9 30 -15 27 -39 -2 -16 -13 -50 -24 -76 l-20 -47 23 -33 c13 -18
22 -43 21 -58 -2 -14 6 -47 17 -74 17 -37 20 -59 15 -101 -16 -133 47 -186
240 -201 128 -10 198 -49 252 -140 l25 -42 -42 -108 c-23 -60 -45 -113 -50
-118 -4 -5 -57 12 -120 39 -128 53 -139 53 -240 3 -64 -32 -224 -91 -294 -109
-58 -15 -140 -7 -213 22 l-63 24 5 40 c8 66 24 148 34 176 22 56 124 145 229
198 23 11 51 35 64 52 32 45 29 83 -9 122 -36 37 -40 63 -16 108 17 33 6 59
-25 59 -38 1 -45 16 -22 53 11 19 21 36 21 39 0 2 -20 25 -45 51 -25 27 -45
56 -45 65 0 9 11 35 25 57 13 22 25 54 25 71 0 31 -1 32 -122 74 -171 60 -195
73 -203 110 -5 23 -25 45 -76 83 -58 43 -69 56 -64 74 8 33 -45 87 -123 125
-89 44 -149 43 -292 -7 -58 -19 -145 -42 -194 -50 -112 -18 -167 -50 -287
-164 -142 -134 -244 -282 -269 -390 -15 -65 -8 -187 19 -343 21 -118 44 -175
103 -249 35 -45 139 -131 170 -141 8 -3 6 -14 -8 -36 -18 -32 -18 -32 6 -76
21 -39 22 -47 10 -62 -13 -15 -9 -22 40 -66 30 -27 72 -60 93 -74 20 -13 37
-31 37 -38 0 -14 -67 -107 -162 -225 -37 -47 -43 -61 -44 -104 0 -48 -2 -51
-60 -99 -32 -27 -76 -61 -97 -76 -41 -28 -64 -66 -122 -208 -33 -78 -38 -102
-46 -218 -5 -72 -13 -147 -19 -166 -16 -56 -12 -210 9 -311 55 -266 139 -523
197 -605 54 -77 63 -113 70 -299 6 -149 6 -150 -26 -245 -18 -53 -34 -126 -37
-166 -5 -64 -4 -73 17 -92 12 -11 45 -25 72 -29 l49 -8 -53 -40 c-151 -115
-908 -933 -908 -982 0 -38 30 -127 48 -146 12 -11 41 -22 71 -25 l52 -7 35
-79 c19 -44 42 -88 51 -98 10 -11 61 -44 115 -74 53 -30 100 -59 103 -64 3 -6
-5 -25 -18 -42 -14 -18 -55 -89 -92 -158 -38 -69 -92 -159 -120 -200 -88 -125
-193 -336 -295 -592 -35 -85 -148 -303 -239 -457 -132 -223 -277 -382 -476
-522 -378 -265 -608 -603 -990 -1453 -154 -344 -181 -397 -221 -445 -49 -56
-85 -80 -149 -96 -30 -8 -82 -28 -114 -44 -32 -17 -61 -28 -64 -25 -3 3 -35
-18 -70 -46 -76 -61 -115 -125 -148 -245 -12 -44 -30 -98 -42 -120 -31 -61
-100 -147 -169 -210 l-63 -57 23 -18 c12 -10 22 -22 22 -26 0 -4 -26 -32 -59
-63 -49 -46 -62 -67 -80 -121 -48 -151 -46 -275 6 -371 34 -63 87 -110 178
-157 59 -31 80 -36 135 -36 53 -1 74 4 118 29 63 34 74 53 96 160 22 108 72
182 250 365 78 80 167 183 199 230 32 47 80 116 106 154 27 37 77 123 111 190
74 141 201 351 273 451 169 235 820 966 1151 1295 l116 115 16 -24 c16 -23 21
-23 118 -19 89 4 110 9 181 41 98 44 201 63 418 77 89 6 194 15 232 21 39 6
88 13 110 15 153 21 601 131 939 231 15 4 18 1 13 -11 -4 -9 -9 -49 -12 -89
-3 -40 -8 -83 -11 -96 -7 -35 -59 -95 -104 -120 -39 -22 -46 -34 -83 -146 -7
-23 -43 -88 -79 -145 -80 -129 -106 -179 -164 -323 -77 -188 -106 -249 -160
-327 -28 -41 -74 -114 -102 -161 -36 -60 -72 -104 -123 -149 -93 -82 -177
-197 -240 -324 -43 -87 -71 -125 -199 -271 -82 -93 -146 -173 -144 -177 8 -13
-139 -167 -159 -168 -10 0 -53 -28 -94 -62 -56 -47 -97 -94 -159 -183 -46 -66
-103 -139 -126 -162 -24 -23 -121 -89 -215 -147 -290 -176 -288 -175 -304
-243 -6 -29 -3 -36 21 -57 32 -27 164 -77 255 -97 75 -16 326 -16 455 0 138
18 320 50 340 61 9 5 54 39 99 75 94 74 118 79 175 40 27 -18 44 -23 64 -19
48 12 148 61 211 103 l61 42 0 69 c0 57 4 76 24 105 29 43 40 104 33 180 -3
30 -4 55 -2 55 2 0 17 -13 33 -29 42 -38 149 -101 250 -145 l83 -36 30 22 c38
29 48 16 50 -62 0 -30 1 -93 2 -140 l2 -85 50 0 50 0 2 95 c3 166 21 266 54
296 18 16 19 15 38 -29 11 -25 29 -78 41 -116 25 -86 54 -112 167 -148 150
-48 440 -41 551 14 31 16 36 23 39 60 4 39 0 47 -44 94 -26 29 -67 60 -90 71
-41 18 -82 61 -98 103 -28 76 -127 366 -132 390 -10 44 -3 223 13 340 1 11 3
36 3 56 1 30 50 102 342 500 188 255 347 470 354 477 10 12 25 -6 81 -100 38
-62 99 -173 136 -246 75 -148 153 -264 298 -446 191 -240 256 -294 472 -396
l95 -45 6 -43 c7 -66 -4 -475 -15 -494 -5 -10 -55 -40 -111 -67 -78 -38 -122
-52 -187 -61 -193 -28 -303 -89 -270 -149 7 -13 7 -22 0 -26 -23 -14 -7 -35
43 -58 128 -59 322 -87 605 -87 177 -1 206 2 292 24 52 14 133 30 180 36 47 6
97 13 112 15 26 4 27 2 38 -65 7 -41 17 -71 26 -74 44 -17 275 -26 406 -16
207 15 189 2 182 129 -3 58 -7 112 -10 119 -2 7 1 34 7 60 15 63 -13 178 -75
305 -24 51 -56 126 -71 167 -15 41 -37 105 -50 141 -13 37 -31 106 -41 153
-19 97 -27 107 -110 132 -67 20 -94 40 -94 69 0 44 -51 167 -160 385 -121 240
-235 489 -287 625 -52 135 -68 159 -124 185 -58 28 -89 58 -123 124 -35 65
-33 97 10 166 33 54 36 64 46 189 12 138 10 171 -31 666 -11 127 -25 320 -32
431 l-13 200 371 685 371 684 49 11 c26 7 111 26 188 44 194 45 205 50 205 96
0 42 -62 232 -110 340 -18 38 -47 132 -65 209 -19 77 -45 179 -58 225 -24 82
-48 219 -62 346 -6 59 -6 61 17 60 20 -1 23 3 20 33 -1 19 -29 114 -62 211
-32 98 -64 206 -70 241 -6 35 -29 156 -52 269 -62 314 -59 349 67 845 35 138
68 288 74 335 28 217 45 273 94 298 17 9 63 47 102 84 l70 66 190 62 c105 34
234 75 287 92 218 65 368 136 438 209 88 89 169 268 189 415 5 38 12 141 16
229 3 88 15 207 25 265 45 247 45 319 3 473 -16 54 -15 68 1 205 17 138 17
151 2 211 -27 100 -105 314 -121 330 -12 13 -20 11 -64 -17 l-50 -31 -6 32
c-24 151 -28 162 -100 283 -17 28 -18 36 -6 71 15 47 8 79 -19 88 -11 4 -26
12 -33 19 -6 7 -26 19 -42 27 -17 8 -30 21 -30 30 0 9 37 44 81 77 72 54 94
78 94 99 0 6 -78 -2 -122 -13 -20 -4 -28 -2 -28 7 -1 40 -16 41 -90 4 -39 -20
-74 -34 -77 -31 -3 2 3 36 13 74 15 59 16 73 5 86 -19 22 -22 21 -65 -23z
m-180 -1919 c-19 -62 -37 -136 -41 -164 -6 -39 -17 -64 -47 -102 -22 -27 -48
-66 -58 -87 -11 -20 -26 -39 -35 -43 -26 -10 -125 -7 -125 3 0 13 330 514 335
509 3 -2 -11 -54 -29 -116z m-2846 -4561 c0 -18 -61 -221 -89 -291 -15 -41
-32 -95 -36 -120 -4 -25 -9 -53 -11 -63 -7 -40 -22 -282 -23 -377 -1 -61 -10
-58 -36 15 -26 73 -101 220 -151 298 -24 37 -44 70 -44 73 0 4 11 15 25 26 33
25 115 147 171 252 41 76 46 82 86 91 38 10 43 14 46 43 2 19 12 38 25 47 24
17 37 19 37 6z"/>
</g>
</svg>
