<?xml version="1.0" standalone="no"?>
<!DOCTYPE svg PUBLIC "-//W3C//DTD SVG 20010904//EN"
 "http://www.w3.org/TR/2001/REC-SVG-20010904/DTD/svg10.dtd">
<svg version="1.0" xmlns="http://www.w3.org/2000/svg"
 width="822.000000pt" height="1023.000000pt" viewBox="0 0 822.000000 1023.000000"
 preserveAspectRatio="xMidYMid meet">

<g transform="translate(0.000000,1023.000000) scale(0.100000,-0.100000)"
fill="#000000" stroke="none">
<path d="M2950 9876 c-112 -26 -240 -90 -369 -186 -192 -143 -261 -281 -248
-495 8 -118 27 -190 84 -305 73 -150 91 -194 113 -282 29 -114 60 -145 93 -94
22 33 42 35 125 15 41 -10 141 -27 222 -39 126 -18 208 -36 302 -67 12 -3 37
14 80 54 80 76 106 93 139 93 41 0 85 42 98 94 6 25 11 88 11 141 0 100 10
133 48 169 39 34 37 67 -9 165 -42 90 -42 96 -24 173 5 19 -2 46 -23 95 -42
93 -46 121 -31 218 19 128 3 144 -166 171 -216 35 -258 44 -310 68 -60 29 -59
29 -135 12z"/>
<path d="M5900 9444 c-14 -2 -108 -8 -210 -13 -193 -11 -267 -25 -314 -62 -38
-30 -53 -64 -70 -163 -22 -125 -49 -176 -164 -305 -133 -150 -186 -256 -233
-472 -21 -99 -15 -138 33 -206 23 -31 29 -48 24 -67 -10 -39 -121 -180 -233
-297 -57 -59 -103 -109 -103 -112 0 -3 15 -1 32 4 18 5 46 9 62 9 l29 0 -23
-25 c-38 -41 -257 -145 -321 -154 -43 -6 -81 -22 -160 -69 -119 -70 -234 -124
-312 -147 -39 -11 -57 -22 -65 -40 -12 -26 -20 -29 -46 -19 -40 15 -13 69 113
219 80 97 151 200 151 221 0 20 -74 88 -173 159 -80 58 -154 99 -248 138 -59
25 -100 98 -148 263 -23 78 -53 124 -81 124 -10 0 -22 -9 -25 -20 -5 -16 -15
-20 -50 -20 -52 0 -55 -6 -55 -106 0 -86 11 -114 44 -114 46 0 83 -21 103 -58
51 -91 174 -473 244 -757 84 -339 107 -555 70 -660 l-17 -49 -29 104 c-96 357
-314 798 -574 1162 -108 152 -183 234 -237 260 -46 21 -104 79 -104 102 0 20
53 24 216 18 149 -5 224 2 206 20 -5 5 -63 14 -128 19 -222 17 -299 29 -417
66 -86 27 -123 34 -134 27 -38 -24 -230 -385 -308 -579 -85 -211 -116 -418
-96 -638 22 -241 103 -597 197 -862 53 -149 57 -167 61 -270 4 -104 3 -117
-31 -230 -105 -350 -221 -864 -238 -1055 l-11 -125 -122 -240 c-68 -132 -163
-319 -212 -415 -126 -246 -165 -373 -149 -484 4 -25 15 -55 26 -68 l18 -23 23
20 c12 11 59 76 104 145 45 69 134 199 199 289 127 178 174 256 211 352 14 35
34 72 44 83 27 29 38 76 18 76 -39 0 -330 -307 -369 -390 -12 -25 -36 -58 -53
-75 -22 -21 -38 -52 -54 -102 -13 -46 -29 -78 -43 -87 -12 -9 -28 -26 -35 -38
-12 -22 -12 -22 -13 8 -1 122 123 330 355 593 179 203 337 344 365 326 17 -11
11 -53 -13 -88 -13 -19 -33 -72 -46 -118 -13 -46 -48 -138 -78 -203 -30 -65
-60 -144 -66 -176 -8 -38 -21 -66 -40 -86 -16 -16 -50 -79 -76 -139 -56 -132
-114 -221 -222 -341 -114 -126 -217 -265 -267 -361 -67 -130 -54 -145 53 -59
82 65 240 157 525 306 118 61 225 123 238 136 38 42 124 197 274 494 155 306
199 385 229 413 10 10 19 29 19 43 0 17 15 40 41 67 52 52 93 115 152 233 25
51 60 107 77 125 17 19 81 131 141 249 60 118 123 238 139 267 18 32 44 117
70 227 l43 176 201 1 c302 0 544 14 587 32 20 8 49 31 63 50 69 91 99 274 56
345 -33 53 -72 64 -280 73 -362 17 -472 32 -507 71 -28 31 -4 44 59 29 28 -6
122 -16 207 -21 346 -23 439 -30 494 -41 32 -7 60 -9 64 -5 3 3 -6 77 -20 163
-65 387 -56 656 29 880 41 112 84 174 197 290 60 61 106 117 102 122 -3 6 -20
11 -36 11 -35 0 -31 13 11 35 26 13 30 13 54 -10 15 -14 35 -25 46 -25 28 0
50 -11 50 -24 0 -15 -66 -77 -153 -145 -95 -75 -173 -188 -219 -321 -78 -225
-77 -584 3 -883 l10 -37 67 56 c37 31 146 130 243 220 172 160 246 224 258
224 32 0 510 -559 621 -725 60 -90 121 -155 219 -233 114 -91 301 -258 501
-447 172 -163 256 -235 275 -235 8 0 25 15 39 33 61 79 49 110 -153 397 -264
376 -464 622 -686 844 -82 83 -173 185 -201 226 -60 88 -154 255 -282 500
l-91 176 14 214 c20 295 32 398 53 432 9 16 39 40 67 53 55 27 193 65 235 65
80 0 281 73 413 151 164 97 235 189 278 360 25 103 44 139 69 139 25 0 25 12
-1 79 -15 41 -19 67 -14 101 5 38 3 50 -15 70 -18 21 -20 32 -15 85 8 79 -15
119 -77 135 -24 7 -77 28 -118 47 -105 49 -140 64 -140 59 0 -2 18 -26 40 -52
22 -27 40 -55 40 -62 0 -31 -100 16 -186 88 -61 50 -118 65 -204 54z"/>
<path d="M4325 8835 c-5 -2 -27 -6 -47 -10 -21 -3 -52 -18 -70 -33 -46 -39
-200 -276 -269 -417 -33 -66 -71 -135 -85 -154 -15 -22 -24 -48 -24 -72 0 -32
6 -43 43 -73 62 -51 157 -106 183 -106 13 0 26 6 31 13 4 6 10 118 13 247 5
221 7 238 29 283 24 49 136 176 146 165 3 -3 -14 -46 -40 -94 -35 -70 -47
-106 -55 -169 -13 -102 -25 -728 -16 -818 8 -75 20 -83 53 -38 12 16 51 43 87
61 36 19 73 42 82 52 27 29 28 103 4 243 -28 165 -28 234 0 307 24 65 86 152
125 178 43 28 57 58 66 137 5 42 15 85 24 97 8 11 22 31 31 43 9 13 13 30 9
42 -9 30 -64 69 -126 90 -52 18 -173 35 -194 26z"/>
<path d="M4990 6603 c-70 -54 -237 -202 -269 -238 -48 -56 -53 -75 -36 -157 9
-40 14 -104 13 -143 l-3 -70 33 2 c42 1 150 72 201 130 47 53 63 108 91 318
28 210 29 203 -30 158z"/>
<path d="M4570 5843 c-8 -4 -29 -17 -47 -30 -68 -52 -102 -56 -482 -62 l-354
-6 -38 -150 c-48 -195 -57 -217 -138 -354 -38 -64 -101 -177 -141 -251 -127
-237 -200 -361 -308 -525 -105 -160 -162 -265 -162 -298 0 -10 -11 -22 -24
-27 -17 -6 -30 -26 -45 -65 -12 -31 -21 -59 -21 -63 0 -4 -18 -39 -41 -77 -23
-39 -80 -144 -127 -234 -54 -102 -104 -184 -133 -216 -49 -52 -62 -60 -399
-240 -214 -114 -320 -180 -399 -249 -42 -36 -77 -58 -100 -62 -100 -19 -703
-291 -784 -354 -36 -29 -34 -38 11 -45 102 -17 408 -79 493 -100 53 -14 148
-50 215 -81 65 -31 259 -121 431 -200 384 -176 462 -215 538 -269 33 -23 92
-59 130 -80 249 -136 566 -413 767 -670 102 -130 183 -194 353 -278 109 -54
404 -162 520 -191 494 -122 929 -88 1335 105 166 80 316 181 483 329 l139 122
141 -145 c127 -129 207 -200 207 -182 0 3 -17 32 -38 63 -73 108 -137 242
-156 324 -8 37 28 78 115 129 39 22 92 60 119 84 26 23 90 68 142 98 177 104
456 327 659 527 143 140 159 165 159 245 0 146 -147 337 -432 562 -42 33 -113
83 -158 109 -276 164 -693 547 -964 884 -194 241 -310 416 -524 790 -282 492
-542 880 -688 1028 -88 88 -188 130 -254 105z"/>
<path d="M7043 5353 c-30 -21 -85 -205 -67 -223 14 -14 359 -169 499 -225 116
-46 215 -68 215 -48 0 34 -107 123 -148 123 -35 0 -92 60 -92 98 0 36 21 56
51 47 12 -4 62 -45 112 -92 110 -102 166 -143 212 -150 30 -5 35 -3 40 19 16
61 -83 223 -188 308 -34 28 -95 68 -136 88 -74 37 -76 37 -235 44 -89 3 -181
9 -206 13 -25 3 -50 2 -57 -2z"/>
<path d="M665 2447 c-81 -32 -105 -66 -105 -150 0 -98 63 -166 297 -326 122
-82 306 -225 311 -241 2 -5 -26 -99 -62 -210 -37 -110 -71 -233 -77 -273 -20
-138 -28 -165 -92 -298 -115 -240 -172 -402 -160 -462 16 -84 99 -184 171
-205 58 -18 142 -15 213 8 136 42 155 70 187 275 24 147 70 337 101 408 17 38
29 52 63 67 24 11 53 20 65 20 35 0 89 74 137 189 24 58 46 117 48 130 10 71
137 85 340 38 64 -15 123 -24 132 -21 43 16 296 353 296 393 0 26 -26 46 -115
87 -44 20 -116 58 -160 85 -44 27 -152 77 -240 113 -88 35 -234 97 -325 138
-277 126 -486 195 -699 232 -109 18 -282 20 -326 3z"/>
<path d="M2556 1676 c-54 -87 -151 -203 -286 -341 -159 -163 -196 -218 -259
-381 -17 -44 -42 -90 -56 -102 -14 -12 -25 -32 -25 -44 -1 -81 -124 -273 -245
-382 -84 -77 -101 -107 -67 -121 28 -11 357 -26 523 -23 l153 3 16 66 c23 90
61 156 130 224 l57 57 6 -149 c5 -157 12 -193 32 -193 22 0 26 59 13 220 -11
157 -7 215 15 207 24 -8 37 -57 44 -173 l7 -119 18 95 c25 139 45 204 91 305
55 121 55 175 4 297 -39 92 -46 132 -23 141 20 8 126 -16 243 -53 184 -59 393
-102 393 -80 0 20 -301 313 -415 404 -117 93 -295 216 -312 216 -6 0 -32 -33
-57 -74z"/>
<path d="M6024 945 c-145 -123 -159 -147 -168 -283 -6 -103 -22 -148 -66 -198
-40 -46 -43 -104 -5 -104 39 0 223 99 280 152 32 29 62 68 76 100 23 50 24 62
22 231 -2 98 -6 184 -10 192 -6 10 -39 -13 -129 -90z"/>
<path d="M6242 955 c0 -79 1 -85 9 -45 5 26 5 65 0 90 -8 39 -9 34 -9 -45z"/>
<path d="M3843 533 c4 -93 10 -181 15 -197 11 -40 38 -46 212 -48 159 -2 209
8 234 47 23 36 75 48 185 43 78 -4 110 -10 174 -36 43 -17 106 -36 140 -42
122 -20 538 -6 640 21 30 8 37 15 37 34 0 59 -70 101 -210 125 -36 6 -75 18
-88 26 -30 20 -65 23 -402 34 -274 9 -289 11 -389 40 -117 34 -498 120 -532
120 l-22 0 6 -167z"/>
</g>
</svg>
