<?xml version="1.0" standalone="no"?>
<!DOCTYPE svg PUBLIC "-//W3C//DTD SVG 20010904//EN"
 "http://www.w3.org/TR/2001/REC-SVG-20010904/DTD/svg10.dtd">
<svg version="1.0" xmlns="http://www.w3.org/2000/svg"
 width="600.000000pt" height="600.000000pt" viewBox="0 0 600.000000 600.000000"
 preserveAspectRatio="xMidYMid meet">

<g transform="translate(0.000000,600.000000) scale(0.100000,-0.100000)"
fill="#000000" stroke="none">
<path d="M2185 5644 c-169 -20 -294 -86 -336 -179 -40 -87 -15 -227 59 -334
57 -81 72 -113 72 -149 0 -58 -12 -68 -112 -92 -51 -13 -140 -41 -198 -63
-201 -75 -296 -98 -475 -117 -193 -20 -298 -58 -330 -120 -30 -58 -20 -107 49
-246 34 -71 86 -179 115 -241 l52 -112 -63 -80 c-79 -99 -151 -220 -200 -333
-58 -135 -58 -130 5 -156 l54 -23 -14 -42 c-20 -56 -19 -161 2 -220 9 -27 32
-77 51 -111 19 -35 34 -69 34 -77 0 -8 18 -52 39 -96 90 -186 162 -429 165
-553 1 -60 -3 -73 -50 -165 -28 -55 -73 -149 -99 -210 -25 -60 -80 -177 -121
-260 -65 -131 -80 -174 -123 -340 -27 -104 -57 -210 -66 -235 -14 -40 -15 -61
-5 -175 7 -71 18 -145 25 -162 14 -32 66 -73 95 -73 8 -1 24 -15 35 -33 41
-65 193 -137 327 -154 70 -9 71 10 11 110 -115 188 -122 218 -88 359 14 57 30
145 35 196 6 52 22 128 36 170 35 102 112 261 170 347 199 302 298 477 314
560 14 69 7 201 -15 285 -8 30 -13 56 -11 58 6 6 246 -209 246 -221 0 -25 -95
-278 -136 -363 -57 -118 -117 -196 -201 -265 -38 -31 -100 -94 -137 -140 -66
-82 -196 -269 -196 -282 0 -4 6 -7 14 -7 11 0 13 -9 9 -35 -5 -28 -1 -39 23
-63 16 -16 51 -37 77 -47 46 -17 50 -17 84 -1 47 22 54 13 65 -70 17 -146 160
-319 234 -285 33 15 40 55 20 111 -10 26 -20 73 -23 104 l-6 56 88 -42 88 -42
29 35 c55 64 77 114 162 369 46 140 132 391 190 558 58 167 113 340 122 384
19 96 15 217 -9 268 -22 44 -267 352 -359 449 -43 45 -81 97 -99 135 -40 84
-69 206 -69 286 0 57 4 73 30 112 28 42 298 383 361 455 32 37 23 60 74 -173
19 -88 42 -180 51 -206 19 -56 60 -104 98 -114 56 -14 155 45 209 123 15 22
61 134 101 249 41 115 81 228 91 251 l17 42 35 -35 c89 -89 333 -263 455 -325
65 -33 88 -35 148 -14 65 23 95 19 123 -15 52 -62 109 -266 110 -395 1 -83
-21 -154 -61 -199 -22 -25 -205 -144 -258 -167 -60 -27 -193 -39 -442 -39
-227 0 -309 -10 -319 -37 -11 -28 23 -42 131 -58 132 -18 181 -31 224 -57 62
-38 31 -114 -57 -138 -29 -8 -41 -16 -41 -30 0 -23 65 -81 181 -160 l89 -61
-30 -52 c-55 -98 -90 -196 -90 -254 0 -63 19 -104 83 -181 24 -29 61 -87 81
-127 47 -94 174 -297 275 -440 100 -141 110 -161 120 -244 9 -72 8 -79 -32
-255 -26 -114 -37 -132 -87 -142 -65 -13 -120 -70 -120 -124 0 -25 5 -29 49
-40 56 -13 176 -1 239 25 51 22 115 87 142 145 28 59 78 92 106 70 14 -12 16
-27 11 -93 l-6 -78 37 3 37 3 -4 86 c-3 77 0 91 23 135 27 50 34 119 17 152
-5 10 -42 51 -83 92 -95 98 -136 180 -187 375 -63 240 -126 384 -219 500 -27
33 -51 68 -55 78 -16 43 52 137 157 214 54 40 62 43 122 43 l64 0 0 -242 c0
-265 8 -324 54 -402 14 -25 45 -59 69 -75 54 -38 92 -78 214 -231 197 -247
362 -473 379 -518 13 -36 18 -89 21 -217 5 -212 -1 -230 -93 -258 -88 -28
-102 -34 -113 -55 -41 -77 192 -142 305 -84 53 27 109 92 130 151 23 67 29 76
53 79 29 5 44 -37 39 -115 l-4 -63 31 0 c52 0 59 11 45 68 -13 58 -8 92 26
174 13 32 24 76 24 98 0 54 -31 113 -74 139 -96 60 -184 198 -254 401 -22 63
-51 141 -65 172 -63 142 -181 285 -275 332 -56 28 -76 49 -97 99 -20 48 -19
85 5 198 10 52 29 168 41 259 26 200 29 210 67 210 36 0 90 35 119 78 12 18
34 65 49 105 55 140 87 170 202 183 58 6 69 12 125 59 72 61 135 95 174 95 17
0 54 -18 92 -45 109 -76 201 -101 260 -70 35 18 43 34 50 109 7 70 31 95 56
59 30 -43 46 -54 69 -47 59 19 106 87 106 153 0 74 -50 142 -96 130 -5 -2 -23
1 -41 5 -23 5 -45 2 -79 -13 -62 -28 -71 -27 -136 13 -98 59 -146 67 -276 46
-60 -10 -67 -9 -107 15 -70 40 -105 35 -224 -36 -119 -70 -167 -89 -228 -89
-56 0 -92 19 -137 72 -54 62 -62 101 -48 216 17 134 15 159 -13 240 -30 86
-33 189 -10 359 11 88 12 142 5 255 -17 260 -17 258 -94 396 -23 43 -53 103
-66 134 -28 67 -22 80 44 97 49 12 60 29 45 69 -6 15 -14 90 -18 167 -7 140
-7 140 -50 222 -47 90 -86 134 -143 164 -75 39 -128 19 -161 -60 -14 -33 -16
-34 -74 -36 -125 -5 -231 -65 -277 -156 -31 -62 -33 -112 -9 -210 15 -65 15
-73 -1 -130 -9 -34 -15 -62 -14 -63 2 -1 14 -7 28 -13 18 -8 31 -28 48 -77 24
-67 58 -106 93 -106 10 0 42 9 71 20 63 24 73 18 89 -54 10 -46 9 -58 -8 -97
-30 -67 -113 -160 -238 -267 -132 -113 -206 -160 -278 -179 -107 -27 -152 2
-229 148 -78 149 -194 269 -262 269 -32 0 -51 -28 -96 -146 -18 -46 -35 -83
-37 -81 -2 2 -10 30 -18 61 -28 106 -54 153 -121 215 -35 33 -84 72 -109 87
-31 18 -44 31 -41 41 3 8 6 20 6 28 0 7 17 15 39 19 66 10 80 30 107 146 28
124 29 177 8 317 -20 137 -46 206 -101 264 -62 67 -120 85 -228 73z m-793
-1233 c4 -3 -21 -55 -56 -114 l-63 -108 -12 63 c-7 35 -21 83 -32 107 -24 55
-24 59 4 64 28 5 150 -3 159 -12z"/>
</g>
</svg>
